/* XPM */
static char * helpLinkTOC_i_xpm[] = {
"24 24 5 1",
" 	s None c #ffffff",
".	c #000000",
"X	c #a7a7a7",
"o	c #4c4c4c",
"O	c #747474",
"           ..           ",
"          .Xo.          ",
"         .XOOo.         ",
"        .XOXoOo.        ",
"       .XOXOOoOo.       ",
"      .XOXOOOOoOo.      ",
"     .XOXOOOOOOoOo.     ",
"    .XOXOOOOOOOOoOo.    ",
"   .XOXOXOOOOOOoOoOo.   ",
"  .XOXOXOOOOOOOOoOoOo.  ",
" .XOXOXOOOOOOOOOOoOoOo. ",
".XoXOXOXOOOOOOOOoOoOoOo.",
" .XoXOXOOOooooOOOoOooo. ",
"  ..ooooo......ooooo..  ",
"    .....      .....    ",
"                        ",
"                        ",
"     ..............     ",
"    .XOXOXOXOXOXOXO.    ",
"    .OOOOOOOOOOOOOO.    ",
"    .OoOoOoOoOoOoOo.    ",
"     ..............     ",
"                        ",
"                        "};
