#define helpLinkNext_i_width 24
#define helpLinkNext_i_height 24
static unsigned char helpLinkNext_i_bits[] = {
	0x00, 0x00, 0x00, 0x00, 0x10, 0x00, 0x00, 0x28, 0x00, 0x00, 0x54, 0x00,
	0x28, 0xaa, 0x00, 0x54, 0x54, 0x01, 0x28, 0xaa, 0x02, 0x54, 0x54, 0x05,
	0x28, 0xaa, 0x0a, 0x54, 0x54, 0x15, 0x28, 0xa8, 0x2a, 0x54, 0x54, 0x55,
	0x28, 0xa8, 0xaa, 0x54, 0x54, 0x55, 0x28, 0xa8, 0x2a, 0x54, 0x54, 0x15,
	0x28, 0xaa, 0x0a, 0x54, 0x54, 0x05, 0x28, 0xaa, 0x02, 0x10, 0x54, 0x01,
	0x00, 0xa8, 0x00, 0x00, 0x54, 0x00, 0x00, 0x28, 0x00, 0x00, 0x10, 0x00,
};
