#define helpLinkNext_width 24
#define helpLinkNext_height 24
static unsigned char helpLinkNext_bits[] = {
	0x00, 0x10, 0x00, 0x00, 0x38, 0x00, 0x00, 0x7c, 0x00, 0x00, 0xfc, 0x00,
	0x38, 0xfe, 0x01, 0x7c, 0xfe, 0x03, 0x7c, 0xfe, 0x07, 0x7c, 0xfe, 0x0f,
	0x7c, 0xfe, 0x1f, 0x7c, 0xfc, 0x3f, 0x7c, 0xfc, 0x7f, 0x7c, 0xfc, 0xff,
	0x7c, 0xfc, 0xff, 0x7c, 0xfc, 0x7f, 0x7c, 0xfc, 0x3f, 0x7c, 0xfe, 0x1f,
	0x7c, 0xfe, 0x0f, 0x7c, 0xfe, 0x07, 0x7c, 0xfe, 0x03, 0x38, 0xfe, 0x01,
	0x00, 0xfc, 0x00, 0x00, 0x7c, 0x00, 0x00, 0x38, 0x00, 0x00, 0x10, 0x00
};
