/* XPM */
static char * helpClose_xpm[] = {
"24 24 5 1",
" 	s None c #ffffff",
".	c #000000",
"X	c #00ffff",
"o	c #00b2b2",
"O	c #007575",
"                        ",
"   ...            ...   ",
"  .XXX.          .XXX.  ",
" .XXooo.        .XooXO. ",
" .Xooooo.      .XooooO. ",
" .Xoooooo.    .XoooooO. ",
"  .ooooooo.  .XoooooO.  ",
"   .ooooooo..XoooooO.   ",
"    .oooooooXoooooO.    ",
"     .oooooooooooO.     ",
"      .oooooooooO.      ",
"       .oooooooO.       ",
"       .Xooooooo.       ",
"      .Xooooooooo.      ",
"     .Xooooooooooo.     ",
"    .XoooooOooooooo.    ",
"   .XoooooO..ooooooo.   ",
"  .XoooooO.  .ooooooo.  ",
" .XoooooO.    .ooooooO. ",
" .XooooO.      .oooooO. ",
" .XXooO.        .oooOO. ",
"  .OOO.          .OOO.  ",
"   ...            ...   ",
"                        "};
