/* XPM */
static char *helpNext_xpm[] = {
/* width height num_colors chars_per_pixel */
"    24    24        5            1",
/* colors */
". s None c #ffffff",
"# c #000000",
"a c #007575",
"b c #00b2b2",
"c c #00ffff",
/* pixels */
"............#...........",
"...........#c#..........",
"..........#cbc#.........",
"..........#bcbc#........",
".........#bcbcbc#.......",
".........#cbcbcbc#......",
".........#bcbcbcbc#.....",
".........#cbcbcbcbc#....",
"...#######bbbbbcbcbc#...",
"..#ccccccccbbbbbbbcbc#..",
".#cbbbbbbbbabbbbbbbcbc#.",
"#cbbbbbbbbbabbbbbbbbcbc#",
"#aababababaabbbbbbbbabc#",
".#aabababababbbbbbbaba#.",
"..#aaaaaaaabbbbbbbaba#..",
"...#######bbbbbababa#...",
".........#cbabababa#....",
".........#babababa#.....",
".........#cbababa#......",
".........#bababa#.......",
"..........#aaba#........",
"..........#aba#.........",
"...........#a#..........",
"............#..........."
};
