/* XPM */
static char * helpLinkPrev_i_xpm[] = {
"24 24 5 1",
" 	s None c #ffffff",
".	c #000000",
"X	c #a7a7a7",
"o	c #747474",
"O	c #4c4c4c",
"           .            ",
"          .X.           ",
"         .XoX.          ",
"        .XoXO.          ",
"       .XoXoXO.   ...   ",
"      .XoXoXoO.  .XXo.  ",
"     .XoXoXoXO.  .ooO.  ",
"    .XoXoXoXoO.  .Xoo.  ",
"   .XoXoXoooo.   .ooO.  ",
"  .XoXooooooo.   .Xoo.  ",
" .XoXoooooooO.   .ooO.  ",
".XoXooooooooO.   .Xoo.  ",
".XoOooooooooO.   .ooO.  ",
" .OoOoooooooO.   .Xoo.  ",
"  .OoOooooooo.   .ooO.  ",
"   .OoOoOoooo.   .Xoo.  ",
"    .OoOoOoOoO.  .ooO.  ",
"     .OoOoOoOO.  .Xoo.  ",
"      .OoOoOoO.  .oOO.  ",
"       .OoOoOO.   ...   ",
"        .OoOO.          ",
"         .OoO.          ",
"          .O.           ",
"           .            "};
