#define helpLinkPrev_width 24
#define helpLinkPrev_height 24
static unsigned char helpLinkPrev_bits[] = {
	0x00, 0x08, 0x00, 0x00, 0x1c, 0x00, 0x00, 0x3e, 0x00, 0x00, 0x3f, 0x00,
	0x80, 0x7f, 0x1c, 0xc0, 0x7f, 0x3e, 0xe0, 0x7f, 0x3e, 0xf0, 0x7f, 0x3e,
	0xf8, 0x3f, 0x3e, 0xfc, 0x3f, 0x3e, 0xfe, 0x3f, 0x3e, 0xff, 0x3f, 0x3e,
	0xff, 0x3f, 0x3e, 0xfe, 0x3f, 0x3e, 0xfc, 0x3f, 0x3e, 0xf8, 0x3f, 0x3e,
	0xf0, 0x7f, 0x3e, 0xe0, 0x7f, 0x3e, 0xc0, 0x7f, 0x3e, 0x80, 0x7f, 0x1c,
	0x00, 0x3f, 0x00, 0x00, 0x3e, 0x00, 0x00, 0x1c, 0x00, 0x00, 0x08, 0x00
};
