/* XPM */
static char * helpLinkNext_i_xpm[] = {
"24 24 5 1",
" 	s None c #ffffff",
".	c #000000",
"X	c #a7a7a7",
"o	c #747474",
"O	c #4c4c4c",
"            .           ",
"           .X.          ",
"          .XoX.         ",
"          .oXoX.        ",
"   ...   .oXoXoX.       ",
"  .XXo.  .XoXoXoX.      ",
"  .ooO.  .oXoXoXoX.     ",
"  .Xoo.  .XoXoXoXoX.    ",
"  .ooO.  .oooooXoXoX.   ",
"  .Xoo.   .oooooooXoX.  ",
"  .ooO.   .OoooooooXoX. ",
"  .Xoo.   .OooooooooXoX.",
"  .ooO.   .OooooooooOoX.",
"  .Xoo.   .OoooooooOoO. ",
"  .ooO.   .oooooooOoO.  ",
"  .Xoo.  .oooooOoOoO.   ",
"  .ooO.  .XoOoOoOoO.    ",
"  .Xoo.  .oOoOoOoO.     ",
"  .oOO.  .XoOoOoO.      ",
"   ...   .oOoOoO.       ",
"          .OOoO.        ",
"          .OoO.         ",
"           .O.          ",
"            .           "};
