/* XPM */
static char * markInvert_i_xpm[] = {
"24 24 5 1",
" 	s None c #ffffff",
"+	c #000000",
"@	c #4c4c4c",
"#	c #747474",
"$	c #a7a7a7",
"  +++++++    +          ",
" +@#@#@#@+  +#+         ",
" +#@#@#@#+  +#+         ",
" +@#@#@#@+  +#+         ",
" +#@#@#@#+  +#+         ",
"  +++++++    +          ",
"  +++++++   ++          ",
" +$$$$$$$+ +$$+         ",
" +$$#$#$@+  ++$+        ",
" +$#$#$#++  +$+ ++      ",
" +$@@@@+#+ +$$$++#+     ",
"  +++++#$+  +++ +$#+    ",
"  ++++#$#+  ++  +#$#+   ",
" +@#+#$#$+++##+++$#$#+  ",
" +#+#$#$#$#++#+#$#$#$#+ ",
" ++#$#####@++++$#####$#+",
" ++#@#####@+##+$#####@#+",
"  ++#@#@#@#++++#@#@#@#+ ",
"  +++#@#@++  + ++@#@#+  ",
" +@#@+#@#+  +#+ +#@#+   ",
" +#@#@+#@+ +##+ +@#+    ",
" +@#@#@+#+  +#+ +#+     ",
" +#@#@#@++  +#+ ++      ",
"  +++++++    +          "};
