/* XPM */
static char *log_icon_xpm[] = {
"64 64 7 1",
" 	s none c #ffffff",
"#	c #000000",
"@	c #7e7e7e",
"$	c #8e8e8e",
"+	c #a6a6a6",
".	c #cecece",
"%	c #ffffff",
"                                                                ",
"                                    ...+.........               ",
"                                 +@################$.           ",
"                               .@####################@.         ",
"                              +#########@@@##@#@#@@####.        ",
"                             +########@##$@@#@@###@#@###        ",
"                            .#####$+#@#@##@@##@###@#@#@#+       ",
"                            #######@@##@@#$#@##@@#####@##.      ",
"                           @############@##@@##@@#@###@###+     ",
"                          .####################@########@##+    ",
"                          @############################$####.   ",
"                          #######@###################@+.####@   ",
"                         .#####@@@@@@#@##########$+.....###@#   ",
"                         +#####@@$$@@@@@@#####@+........###$#.  ",
"                         @####@@+......++$##@+..........$#@+#.  ",
"                         @####@$+........................#@+#+  ",
"                         @####@$.........................@#+#+  ",
"                         @####@$.........................@#+#+  ",
"                         #####@$.........................@#$#+  ",
"                         @####@$.......................+.@#$#+  ",
"                         @###@@$.......................+.##@#+  ",
"                         $####@$.......................$.##$#+  ",
"                         +####@+......................+$.##@#+  ",
"                         +###@@+..+++.............+....@.##@#.  ",
"                         @###@@.$####@..........@#####+@.+###$  ",
"                         $@@#@@$@+..$##........+#@@$$@#@+.###$  ",
"                         $##@@+...+++@@@......+@+.....+#$.##@.  ",
"            ####################+++@++@@+....+@@@$++++.@$.@##   ",
"            #%%%%%%%%%%%%%%%%%%#+.+#@..@$...+@@@.##+.+.$+.@##   ",
"            #%###%###%###%###%%#+.+#@.++@+..+$++.##+.$.++.@#@   ",
"            #%%%%%%%%%%%%%%%%%%#.....++.@+.....+++......+.@#@   ",
"            #%#####%######%##%%#+++++...#+......+$+++.....@#+   ",
"            #%%%%%%%%%%%%%%%%%%#........#.................@@+   ",
"            #%#####%####%###%%%#........#.................$@.   ",
"            #%%%%%%%%%%%%%%%%%%#........@.................$$.   ",
"            #%####%##%##%####%#........++...............+.$$.   ",
"            #%%%%%%%%%%%%%%%%%#......++@+...............+.++    ",
"            #%###%######%###%#@+....$++@+......+$......++.      ",
"            #%%%%%%%%%%%%%%%%#@$...@++@@@...+$+..$.....@+.      ",
"            #%%########%####%#@@..@++@@@@@$@@+....$..+@@+.      ",
"             ##%%%%%%%%%%%%%#@@@@@++@@@@@@@@+.....++$@@@+       ",
"               #%%%%%%%%%%%# @@@@++@@@@@@@@+......+@$@$@+       ",
"                #%%%%%%%%%%##$@$@.+@@@#@@@$.+$@@###...+@.       ",
"                #%%%%%%%%%%%#.@.@..+@@++@@$++.%.@#....$@.       ",
"                 ##%%%%%%%%%# @.@+.+@#$.%%%%%%.+@.....@@        ",
"                   #%%%%%%%%# $+$+.+@@##@.+.+++@.....+@$        ",
"                   #%%%%%%%#  .++$..+####$$+@@+......$@.        ",
"                    #%%%%%#    @.$..$##@@.++.........@@         ",
"                     #%%%#     +...+##@@$.....+.....+@+         ",
"                      #%#       +.+##@+@@@$$@@+.....@$          ",
"                      #%#       .+###.+@@$+++.......@.          ",
"                       #  ..    .###..@@+..........$+           ",
"                         @#.#. .###$.$@+..........+$            ",
"                        @#$+#@.####$+@@..........+@.            ",
"                      ..@.+@###### $@@@.........+@+             ",
"                      ..+@@@#####+  @@@@$$@$+++@@$              ",
"                      .###$@####@    $@@@@@@@@@@+               ",
"                       ###@$@###       .. .+$++.                ",
"                       @##@$@##.                                ",
"                       .##@@@#+                                 ",
"                        +####+                                  ",
"                         +#@.                                   ",
"                                                                ",
"                                                                "};
