#define mgv_icon_width 64
#define mgv_icon_height 64
static unsigned char mgv_icon_bits[] = {
	0x00,0x00,0x00,0x00,0x00,0x00,0x00,0x00,0x00,0x00,0x00,0x00,0x00,0x00,
	0x00,0x00,0x00,0x00,0x00,0x00,0xfc,0xff,0x07,0x00,0x00,0x00,0x00,0x00,
	0xff,0xff,0x3f,0x00,0x00,0x00,0x00,0x80,0xff,0xfd,0x7d,0x00,0x00,0x00,
	0x00,0xc0,0xff,0x95,0xef,0x00,0x00,0x00,0x00,0xe0,0xd7,0xfb,0xfb,0x00,
	0x00,0x00,0x00,0xf0,0x77,0x7b,0xbf,0x01,0x00,0x00,0x00,0xf8,0xff,0xee,
	0xfa,0x03,0x00,0x00,0x00,0xf8,0xff,0xff,0xff,0x07,0x00,0x00,0x00,0xf8,
	0xff,0xff,0x7f,0x0f,0x00,0x00,0x00,0xfc,0xff,0xff,0x3f,0x1f,0x00,0x00,
	0x00,0x7c,0xe9,0xff,0x03,0x17,0x00,0x00,0x00,0xfc,0x2a,0x7f,0x00,0x1f,
	0x00,0x00,0x00,0xbe,0x80,0x1c,0x00,0x16,0x00,0x00,0x00,0xbc,0x00,0x00,
	0x00,0x12,0x00,0x00,0x00,0xbe,0x00,0x00,0x20,0x1e,0x00,0x00,0x00,0x7c,
	0x02,0x00,0x02,0x14,0x00,0x00,0x06,0xbe,0x10,0x00,0x00,0x36,0x00,0x00,
	0x09,0x7e,0x00,0x22,0x80,0x1c,0x00,0x80,0x10,0xbc,0x00,0x00,0x08,0x16,
	0x00,0x40,0x08,0x7e,0x40,0x80,0x80,0x1e,0x00,0x20,0x04,0xbc,0x00,0x00,
	0x40,0x1e,0x00,0x10,0x04,0x5c,0x14,0x04,0x84,0x16,0x00,0x48,0x09,0x5e,
	0x3f,0x00,0xbf,0x3c,0x00,0x04,0x08,0x38,0x61,0x10,0xd5,0x1c,0x00,0x04,
	0x38,0x2e,0xd0,0x80,0x80,0x1d,0x00,0xc4,0x48,0x2c,0x4a,0xc1,0x8a,0x1c,
	0x00,0xc4,0xc0,0x3c,0x98,0x50,0x26,0x18,0x00,0x02,0x00,0x4d,0x08,0x22,
	0x86,0x0c,0x0c,0x01,0x00,0xbe,0x41,0x01,0x01,0x19,0x92,0x00,0x00,0x8e,
	0x14,0x01,0x14,0x0c,0xe4,0x00,0x00,0xe0,0x00,0x01,0x00,0x08,0x02,0x00,
	0x00,0x00,0x01,0x89,0x00,0x08,0x0c,0x00,0x00,0xc0,0x00,0x01,0x00,0x04,
	0x08,0x0c,0x00,0x9c,0x80,0x00,0x00,0x09,0xd0,0x0b,0x00,0x6b,0x22,0x01,
	0x08,0x00,0x20,0x10,0x00,0x42,0x90,0x48,0x01,0x01,0x00,0x0c,0x00,0xa4,
	0x48,0x21,0x82,0x00,0x00,0x02,0x00,0x48,0x54,0x15,0xa4,0x00,0x00,0x02,
	0x00,0xa8,0xa2,0x0a,0xa0,0x00,0x00,0x02,0x00,0x44,0x59,0x05,0xa8,0x00,
	0x00,0x04,0x00,0xa3,0xe4,0xd2,0x87,0x00,0x00,0x08,0x80,0x40,0x11,0x05,
	0x43,0x00,0x00,0x10,0x80,0x00,0x71,0x00,0x81,0x00,0x00,0x60,0x80,0x40,
	0xd0,0x91,0x40,0x00,0x00,0x80,0x00,0x81,0xe2,0x25,0x48,0x00,0x00,0x00,
	0x01,0x01,0x70,0x01,0x20,0x00,0x00,0x00,0x02,0x81,0x70,0x41,0x20,0x00,
	0x00,0x00,0x1c,0x01,0x39,0x2d,0x10,0x00,0x00,0x00,0x20,0x01,0x9c,0x02,
	0x10,0x00,0x00,0x00,0xc0,0x00,0x8e,0x00,0x00,0x00,0x00,0x00,0x00,0x16,
	0x4f,0x10,0x09,0x00,0x00,0x00,0x00,0xb2,0x67,0x00,0x04,0x00,0x00,0x00,
	0x00,0xf9,0x53,0x00,0x02,0x00,0x00,0x00,0x00,0xf4,0xa1,0xad,0x01,0x00,
	0x00,0x00,0x80,0xfb,0x41,0x55,0x00,0x00,0x00,0x00,0x80,0xeb,0x00,0x10,
	0x00,0x00,0x00,0x00,0x80,0x77,0x00,0x00,0x00,0x00,0x00,0x00,0x00,0x2b,
	0x00,0x00,0x00,0x00,0x00,0x00,0x00,0x1e,0x00,0x00,0x00,0x00,0x00,0x00,
	0x00,0x0c,0x00,0x00,0x00,0x00,0x00,0x00,0x00,0x00,0x00,0x00,0x00,0x00,
	0x00,0x00,0x00,0x00,0x00,0x00,0x00,0x00
};
