/* XPM */
static char *mgv_icon_xpm[] = {
"64 64 7 1",
"  s none c #ffffff",
"@ c #000000",
"o c #7e7e7e",
"+ c #8e8e8e",
": c #a6a6a6",
", c #cecece",
". c #ffffff",
"                                                                ",
"                                    ,,,:,,,,,,,,,.              ",
"                                 :o@@@@@@@@@@@@@@@@+,           ",
"                               ,o@@@@@@@@@@@@@@@@@@@@o,         ",
"                              :@@@@@@@@@ooo@@o@o@oo@@@@,        ",
"                             :@@@@@@@@o@@+oo@oo@@@o@o@@@        ",
"                            ,@@@@@+:@o@o@@oo@@o@@@o@o@o@:       ",
"                           .@@@@@@@oo@@oo@+@o@@oo@@@@@o@@,      ",
"                           o@@@@@@@@@@@@o@@oo@@oo@o@@@o@@@:     ",
"                          ,@@@@@@@@@@@@@@@@@@@@o@@@@@@@@o@@:    ",
"                          o@@@@@@@@@@@@@@@@@@@@@@@@@@@@+@@@@,   ",
"                          @@@@@@@o@@@@@@@@@@@@@@@@@@@o:,@@@@o   ",
"                         ,@@@@@oooooo@o@@@@@@@@@@+:,,,,,@@@o@.  ",
"                         :@@@@@oo++oooooo@@@@@o:,,,,,,,,@@@+@,  ",
"                         o@@@@oo:,,,,,,::+@@o:,,,,,,,,,,+@o:@,  ",
"                         o@@@@o+:,,,,,,,,,,,,,,,,,,,,,,,,@o:@:  ",
"                         o@@@@o+,,,,,,,,,,,,,,,,,,,,,,,,,o@:@:  ",
"                         o@@@@o+,,,,,,,,,,,,,,,,,,,,,,,,,o@:@:  ",
"                 @@      @@@@@o+,,,,,,,,,,,,,,,,,,,,,,,,,o@+@:  ",
"                @..@     o@@@@o+,,,,,,,,,,,,,,,,,,,,,,,:,o@+@:  ",
"               @....@    o@@@oo+,,,,,,,,,,,,,,,,,,,,,,,:,@@o@:  ",
"              @....@     +@@@@o+,,,,,,,,,,,,,,,,,,,,,,,+,@@+@:  ",
"             @....@      :@@@@o:,,,,,,,,,,,,,,,,,,,,,,:+,@@o@:  ",
"            @.....@      :@@@oo:,,:::,,,,,,,,,,,,,:,,,,o,@@o@,  ",
"           @..@.@..@    .o@@@oo,+@@@@o,,,,,,,,,,o@@@@@:o,:@@@+  ",
"          @........@     +oo@oo+o:,,+@@,,,,,,,,:@oo++o@o:,@@@+  ",
"          @........@@@   +@@oo:,,,:::ooo,,,,,,:o:,,,,,:@+,@@o,  ",
"          @...@@...@..@  :@@oo,,:::o::oo:,,,,:ooo+::::,o+,o@@.  ",
"          @...@@......@@ ,@@oo,,:,:@o,,o+,,,:ooo,@@:,:,+:,o@@   ",
"         @..............@,@@o:@,,,:@o,::o:,,:+::,@@:,+,::,o@o   ",
"  @@    @................@@@@@.@,,,,,::,o:,,,,,:::,,,,,,:,o@o   ",
" @..@  @.................@@@...@,::::,,,@:,,,,,,:+:::,,,,,o@:   ",
"  @..@@@.....................@@@,,,,,,,,@,,,,,,,,,,,,,,,,,oo:   ",
" @..............................@,,,,,,,@,,,,,,,,,,,,,,,,,+o,   ",
"  @@..........................@@,,,,,,,,o,,,,,,,,,,,,,,,,,++,   ",
"   @......@@..............@@@..@,,,,,,,::,,,,,,,,,,,,,,,:,++,   ",
"    @.@@@@ @............@@:o:@@,,,,,,::o:,,,,,,,,,,,,,,,:,::    ",
"     @      @............@..,:o:,,,,+::o:,,,,,,:+,,,,,,::,      ",
"          @@..............@..+o+,,,o::ooo,,,:+:,,+,,,,,o:,      ",
"         @.................@.+oo,,o::ooooo+oo:,,,,+,,:oo:,      ",
"         @.................@ ooooo::oooooooo:,,,,,::+ooo:.      ",
"         @................@  oooo::oooooooo:,,,,,,:o+o+o:       ",
"          @.............@@   +o+o,:ooo@ooo+,:+oo@@@,,,:o,       ",
"           @...........@     ,o,o,,:oo::oo+::,.,o@,,,,+o,       ",
"            @..........@      o,o:,:o@+,......,:o,,,,,oo        ",
"             @@........@      +:+:,:oo@@o,:,:::o,,,,,:o+        ",
"               @........@     ,::+,,:@@@@++:oo:,,,,,,+o,        ",
"                @.......@      o,+,,+@@oo,::,,,,,,,,,oo.        ",
"                 @......@      :,,,:@@oo+,,,,,:,,,,,:o:         ",
"                  @@@...@      .:,:@@o:ooo++oo:,,,,,o+          ",
"                     @..@       ,:@@@,:oo+:::,,,,,,,o,          ",
"                      @@..,,.   ,@@@,,oo:,,,,,,,,,,+:           ",
"                       ..o@,@, ,@@@+,+o:,,,,,,,,,,:+.           ",
"                      ..o@+:@o,@@@@+:oo,,,,,,,,,,:o,            ",
"                      ,,o,:o@@@@@@.+ooo,,,,,,,,,:o:             ",
"                      ,,:ooo@@@@@: .oooo++o+:::oo+              ",
"                      ,@@@+o@@@@o   .+oooooooooo:               ",
"                       @@@o+o@@@      .,,.,:+::,                ",
"                       o@@o+o@@,                                ",
"                       ,@@ooo@:                                 ",
"                        :@@@@:                                  ",
"                         :@o,                                   ",
"                                                                ",
"                                                                "
};
